<?xml version="1.0" encoding="UTF-8"?>
<svg version="1.1" xmlns="http://www.w3.org/2000/svg" width="1024" height="1024">
<path d="M0 0 C337.92 0 675.84 0 1024 0 C1024 337.92 1024 675.84 1024 1024 C686.08 1024 348.16 1024 0 1024 C0 686.08 0 348.16 0 0 Z " fill="#F1F1F1" transform="translate(0,0)"/>
<path d="M0 0 C64.4853459 -2.01656745 64.4853459 -2.01656745 91.7578125 -2.44140625 C97.9964866 -2.53924914 104.23509714 -2.64025861 110.47363281 -2.74658203 C111.25516315 -2.75976947 112.03669348 -2.77295691 112.84190655 -2.78654397 C123.79678028 -2.97541681 134.74265095 -3.2836184 145.69165125 -3.68672177 C164.50901965 -4.37933214 183.31740749 -4.85190708 202.1484375 -4.8828125 C203.23583467 -4.88520854 203.23583467 -4.88520854 204.34519947 -4.88765299 C268.64242309 -4.96616595 268.64242309 -4.96616595 291.89102173 17.86575317 C300.50065119 26.85316134 307.42130476 36.83376834 313.55513382 47.64142227 C316.07879816 51.76101383 318.97330984 54.3155399 323 57 C323.37259549 58.9155246 323.37259549 58.9155246 323.36914349 61.30661201 C323.37511663 62.21627696 323.38108978 63.12594191 323.38724393 64.06317246 C323.3785054 65.06899333 323.36976688 66.07481421 323.36076355 67.1111145 C323.36332682 68.17454697 323.3658901 69.23797943 323.36853105 70.33363712 C323.37349852 73.92065521 323.35692701 77.50725854 323.34057617 81.09423828 C323.33973054 83.65607697 323.34020379 86.21791638 323.34190369 88.77975464 C323.3425883 94.30735742 323.33404289 99.83482505 323.31719017 105.36240005 C323.29283969 113.35437753 323.28499896 121.34630361 323.2812262 129.33831416 C323.27465549 142.30385961 323.25467757 155.26934854 323.22631836 168.23486328 C323.19879379 180.83186565 323.17758677 193.42885261 323.16479492 206.02587891 C323.16399093 206.8098937 323.16318694 207.59390849 323.16235858 208.4016813 C323.15612055 214.53292152 323.15024969 220.66416208 323.14449489 226.79540277 C323.11617864 256.86365372 323.05582742 286.93176323 323 317 C242.48 317 161.96 317 79 317 C79 291.92 79 266.84 79 241 C133.45 241 187.9 241 244 241 C244 186.88 244 132.76 244 77 C189.22 77 134.44 77 78 77 C78 130.79 78 184.58 78 240 C52.26 240 26.52 240 0 240 C0 160.8 0 81.6 0 0 Z " fill="#000101" transform="translate(351,354)"/>
</svg>
